<svg width="152" height="152" viewBox="0 0 152 152" fill="none" xmlns="http://www.w3.org/2000/svg">
    <path
        d="M19 44.3333V69.6667C19 71.3464 19.6673 72.9573 20.855 74.145C22.0427 75.3327 23.6536 76 25.3333 76H44.3333M44.3333 44.3333V107.667M107.667 44.3333V69.6667C107.667 71.3464 108.334 72.9573 109.522 74.145C110.709 75.3327 112.32 76 114 76H133M133 44.3333V107.667M63.3333 50.6667V101.333C63.3333 103.013 64.0006 104.624 65.1883 105.812C66.3761 106.999 67.987 107.667 69.6667 107.667H82.3333C84.013 107.667 85.6239 106.999 86.8117 105.812C87.9994 104.624 88.6667 103.013 88.6667 101.333V50.6667C88.6667 48.987 87.9994 47.3761 86.8117 46.1883C85.6239 45.0006 84.013 44.3333 82.3333 44.3333H69.6667C67.987 44.3333 66.3761 45.0006 65.1883 46.1883C64.0006 47.3761 63.3333 48.987 63.3333 50.6667Z"
        stroke="#D84343" stroke-width="2" stroke-linecap="round" stroke-linejoin="round" />
</svg>