<svg width="32" height="23" viewBox="0 0 32 23" fill="none" xmlns="http://www.w3.org/2000/svg">
    <mask id="path-1-inside-1_15047_180" fill="white">
        <path
            d="M1.82557 1.85976H10.512C10.5854 1.85976 10.6544 1.83181 10.7065 1.78103L11.541 0.96691C11.7835 0.730312 12.1059 0.600006 12.4489 0.600006H25.6206C26.2339 0.600006 26.8033 0.897229 27.1439 1.39523L28.7225 3.7053C28.9465 4.03323 28.9671 4.45249 28.7766 4.8001C28.5861 5.14772 28.2165 5.36345 27.8126 5.36345H21.024V6.03269H24.5008C25.4224 6.03269 26.2517 6.56691 26.6133 7.39402L28.6491 12.0488L30.4323 12.7448C31.3846 13.1164 32 14.003 32 15.0037V19.3144C32 19.9573 31.4637 20.4805 30.8047 20.4805H28.7298C28.4885 21.9076 27.2149 23 25.6847 23C24.1546 23 22.881 21.9076 22.6397 20.4805H11.2973C11.0559 21.9076 9.7824 23 8.25221 23C6.72202 23 5.44847 21.9076 5.20716 20.4805H1.0625C0.476571 20.4805 -2.98023e-08 20.0156 -2.98023e-08 19.444V3.64074C-2.98023e-08 2.65852 0.818764 1.85976 1.82557 1.85976ZM25.6847 22.0158C26.8308 22.0158 27.7629 21.1064 27.7629 19.9884C27.7629 18.8704 26.8308 17.961 25.6847 17.961C24.5387 17.961 23.6066 18.8704 23.6066 19.9884C23.6066 21.1064 24.5387 22.0158 25.6847 22.0158ZM21.024 19.4963H22.6389C22.6429 19.4715 22.6482 19.4475 22.653 19.4231C22.6562 19.4066 22.6591 19.39 22.6627 19.3735C22.6708 19.3349 22.6801 19.2967 22.6897 19.2585C22.6918 19.2507 22.6934 19.2428 22.6958 19.2349C22.7079 19.1889 22.7212 19.1436 22.7353 19.0987C22.7394 19.0857 22.7442 19.0727 22.7487 19.0593C22.7591 19.0278 22.77 18.9964 22.7813 18.9653C22.7878 18.9487 22.7943 18.9322 22.8011 18.9156C22.8116 18.8885 22.8221 18.8613 22.8338 18.8346C22.8411 18.8168 22.8491 18.7995 22.8572 18.7822C22.8685 18.7566 22.8798 18.7318 22.8919 18.7066C22.9008 18.6889 22.9093 18.6716 22.9185 18.6539C22.9306 18.6298 22.9436 18.6054 22.9565 18.5818C22.9658 18.5645 22.9754 18.5472 22.9851 18.5298C22.9984 18.5062 23.0126 18.4826 23.0267 18.4594C23.0368 18.4428 23.0469 18.4263 23.0569 18.4098C23.0723 18.3862 23.0876 18.3629 23.1034 18.3393C23.1138 18.324 23.1239 18.3086 23.1344 18.2936C23.1518 18.2688 23.1699 18.2444 23.1885 18.22C23.1978 18.207 23.2071 18.194 23.2167 18.1814C23.2418 18.1492 23.2672 18.1181 23.293 18.087C23.2966 18.0822 23.3003 18.0775 23.3043 18.0728C23.3342 18.0374 23.3652 18.0027 23.3967 17.9689C23.4064 17.9582 23.4165 17.9484 23.4266 17.9382C23.4488 17.9149 23.471 17.8917 23.494 17.8689C23.5069 17.8563 23.5202 17.8441 23.5331 17.8319C23.5537 17.8122 23.5747 17.7925 23.5961 17.7732C23.6102 17.7606 23.6247 17.748 23.6392 17.7354C23.6602 17.7173 23.6812 17.6996 23.7026 17.6819L23.7486 17.6453C23.77 17.6283 23.7918 17.6118 23.8136 17.5953C23.8293 17.5835 23.8454 17.5716 23.8616 17.5602C23.8838 17.5441 23.9064 17.5287 23.9294 17.513C23.9455 17.5024 23.9617 17.4913 23.9778 17.4807C24.0016 17.465 24.0262 17.45 24.0504 17.435C24.0662 17.4256 24.0819 17.4158 24.0981 17.4063C24.1247 17.3906 24.1521 17.3756 24.1796 17.3606C24.1937 17.3528 24.2074 17.3449 24.2211 17.3374C24.2603 17.3169 24.2994 17.2973 24.339 17.2784C24.3422 17.2772 24.345 17.2756 24.3482 17.274C24.391 17.254 24.4346 17.2347 24.4782 17.2166C24.4923 17.2107 24.5068 17.2055 24.521 17.1996C24.5508 17.1878 24.5811 17.176 24.6118 17.1646C24.6291 17.1583 24.6469 17.1528 24.6642 17.1465C24.6921 17.137 24.7199 17.1276 24.7481 17.1189C24.7671 17.113 24.7861 17.1075 24.8054 17.102C24.8329 17.0941 24.8603 17.0862 24.8878 17.0792C24.9075 17.074 24.9273 17.0689 24.9475 17.0642C24.9749 17.0575 25.0024 17.0516 25.0302 17.0457C25.0504 17.0414 25.0706 17.037 25.0911 17.0331C25.1194 17.028 25.1476 17.0229 25.1763 17.0185C25.1965 17.015 25.2162 17.0118 25.2368 17.0091C25.2663 17.0048 25.2961 17.0012 25.3264 16.9977C25.3454 16.9957 25.3647 16.9929 25.3841 16.9914C25.4172 16.9882 25.4507 16.9859 25.4842 16.9839C25.5007 16.9827 25.5169 16.9811 25.5334 16.9807C25.5839 16.978 25.6339 16.9768 25.6847 16.9768C25.7356 16.9768 25.7856 16.978 25.8361 16.9807C25.8526 16.9811 25.8688 16.9827 25.8853 16.9839C25.9188 16.9859 25.9523 16.9882 25.9854 16.9914C26.0047 16.9929 26.0241 16.9957 26.0431 16.9977C26.0733 17.0012 26.1032 17.0048 26.1327 17.0091C26.1532 17.0118 26.173 17.015 26.1932 17.0185C26.2218 17.0229 26.2501 17.028 26.2783 17.0331C26.2989 17.037 26.3191 17.0414 26.3393 17.0457C26.3671 17.0516 26.3946 17.0575 26.422 17.0642C26.4422 17.0689 26.4619 17.074 26.4817 17.0792C26.5092 17.0862 26.5366 17.0941 26.564 17.102C26.5834 17.1075 26.6024 17.113 26.6213 17.1189C26.6496 17.1276 26.6774 17.137 26.7053 17.1465C26.7226 17.1528 26.7404 17.1583 26.7577 17.1646C26.7884 17.176 26.8187 17.1878 26.8485 17.1996C26.8626 17.2055 26.8772 17.2107 26.8913 17.2166C26.9349 17.2347 26.9785 17.254 27.0212 17.274C27.0245 17.2756 27.0273 17.2772 27.0305 17.2784C27.0701 17.2973 27.1092 17.3169 27.1483 17.3374C27.1621 17.3449 27.1758 17.3528 27.1899 17.3606C27.2174 17.3756 27.2448 17.3906 27.2714 17.4063C27.2876 17.4158 27.3033 17.4256 27.319 17.435C27.3433 17.45 27.3679 17.465 27.3917 17.4807C27.4078 17.4913 27.424 17.5024 27.4401 17.513C27.4631 17.5287 27.4857 17.5441 27.5079 17.5602C27.524 17.5716 27.5402 17.5835 27.5559 17.5953C27.5777 17.6118 27.5995 17.6283 27.6209 17.6453L27.6669 17.6819C27.6883 17.6996 27.7093 17.7173 27.7302 17.7354C27.7448 17.748 27.7593 17.7606 27.7734 17.7732C27.7948 17.7925 27.8158 17.8122 27.8364 17.8319C27.8493 17.8441 27.8626 17.8563 27.8755 17.8689C27.8985 17.8917 27.9207 17.9149 27.9429 17.9382C27.953 17.9484 27.9631 17.9582 27.9728 17.9689C28.0042 18.0027 28.0353 18.0374 28.0652 18.0728C28.0692 18.0775 28.0728 18.0822 28.0765 18.087C28.1023 18.1181 28.1277 18.1492 28.1527 18.1814C28.1624 18.194 28.1717 18.207 28.181 18.22C28.1995 18.2444 28.2177 18.2688 28.2351 18.2936C28.2455 18.3086 28.2556 18.324 28.2661 18.3393C28.2819 18.3629 28.2972 18.3862 28.3125 18.4098C28.3226 18.4263 28.3327 18.4428 28.3428 18.4594C28.3569 18.4826 28.371 18.5062 28.3844 18.5298C28.394 18.5472 28.4037 18.5645 28.413 18.5818C28.4259 18.6054 28.4388 18.6298 28.4509 18.6539C28.4602 18.6716 28.4687 18.6889 28.4776 18.7066C28.4897 18.7318 28.501 18.7566 28.5123 18.7822C28.5204 18.7995 28.5284 18.8168 28.5357 18.8346C28.5474 18.8613 28.5579 18.8885 28.5684 18.9156C28.5752 18.9322 28.5817 18.9487 28.5881 18.9653C28.5994 18.9964 28.6103 19.0278 28.6208 19.0593C28.6253 19.0727 28.6301 19.0857 28.6341 19.0987C28.6483 19.1436 28.6616 19.1889 28.6737 19.2349C28.6761 19.2428 28.6777 19.2507 28.6797 19.2585C28.6894 19.2967 28.6987 19.3349 28.7068 19.3735C28.7104 19.39 28.7132 19.4066 28.7165 19.4231C28.7213 19.4475 28.7266 19.4715 28.7306 19.4963H30.8047C30.9076 19.4963 30.9912 19.4148 30.9912 19.3144V17.2524H30.2043V16.2682H30.9912V15.0037C30.9912 14.4077 30.6248 13.8798 30.0578 13.6585L28.1701 12.922H21.024V19.4963ZM21.024 11.9378H27.5039L25.6855 7.78021C25.4826 7.31646 25.0177 7.01688 24.5008 7.01688H21.024V11.9378ZM8.25221 22.0158C9.39823 22.0158 10.3304 21.1064 10.3304 19.9884C10.3304 18.8704 9.39823 17.961 8.25221 17.961C8.21629 17.961 8.18078 17.9618 8.14527 17.9637C7.19052 18.011 6.40363 18.6905 6.21639 19.5802C6.20953 19.6132 6.20308 19.6467 6.19783 19.6802C6.18734 19.7471 6.18048 19.8152 6.17685 19.8841C6.17483 19.9187 6.17402 19.9534 6.17402 19.9884C6.17402 21.1064 7.10618 22.0158 8.25221 22.0158ZM1.00883 16.2682H1.79571V17.2524H1.00883V19.444C1.00883 19.4727 1.03304 19.4963 1.0625 19.4963H5.20636C5.21039 19.4719 5.21564 19.4479 5.22048 19.4239C5.22371 19.407 5.22653 19.39 5.23016 19.3731C5.23823 19.3353 5.24711 19.2979 5.2568 19.2609C5.25922 19.2522 5.26083 19.2432 5.26325 19.2345C5.27536 19.1889 5.28867 19.144 5.3028 19.0991C5.30724 19.0853 5.31208 19.0715 5.31652 19.0582C5.32701 19.0271 5.3375 18.996 5.3488 18.9656C5.35526 18.9483 5.36212 18.9318 5.36857 18.9149C5.37907 18.8881 5.38996 18.8613 5.40086 18.8349C5.40853 18.8168 5.41659 18.7991 5.42467 18.7814C5.43596 18.7566 5.44726 18.7318 5.45937 18.707C5.46784 18.6889 5.47713 18.6712 5.486 18.6535C5.49811 18.6294 5.51062 18.6058 5.52353 18.5818C5.53322 18.5645 5.5429 18.5472 5.55258 18.5298C5.5663 18.5062 5.58003 18.483 5.59415 18.4598C5.60424 18.4428 5.61433 18.4263 5.62482 18.4098C5.63975 18.3862 5.65508 18.3629 5.67082 18.3401C5.68091 18.3244 5.6914 18.3086 5.70189 18.2936C5.71924 18.2688 5.7374 18.2448 5.75516 18.2208C5.76484 18.2074 5.77453 18.194 5.78461 18.1811C5.80883 18.15 5.83344 18.1192 5.85887 18.0889C5.8633 18.0834 5.86734 18.0779 5.87178 18.0728C5.90204 18.0374 5.93271 18.0027 5.96419 17.9689C5.97427 17.9582 5.98436 17.948 5.99445 17.9374C6.01665 17.9141 6.03884 17.8913 6.06144 17.8689C6.07435 17.8563 6.08767 17.8441 6.10098 17.8315C6.12156 17.8118 6.14214 17.7925 6.16353 17.7732C6.17765 17.7606 6.19259 17.748 6.20711 17.735C6.22769 17.7173 6.24868 17.6996 6.27006 17.6823C6.2854 17.6697 6.30073 17.6571 6.31647 17.6449C6.33745 17.6283 6.35924 17.6118 6.38103 17.5953C6.39677 17.5835 6.41291 17.5716 6.42905 17.5602C6.45125 17.5441 6.47385 17.5287 6.49644 17.5134C6.51299 17.5024 6.52913 17.4913 6.54527 17.4807C6.56908 17.465 6.59329 17.45 6.6175 17.4354C6.63364 17.4256 6.64938 17.4158 6.66552 17.4063C6.69216 17.3906 6.71919 17.3756 6.74663 17.3606C6.76076 17.3528 6.77448 17.3449 6.789 17.3374C6.82734 17.3169 6.86608 17.2977 6.90562 17.2791C6.90885 17.2776 6.91208 17.2756 6.91571 17.274C6.95849 17.254 7.00207 17.2347 7.04565 17.2166C7.05977 17.2107 7.0743 17.2055 7.08842 17.1996C7.11869 17.1878 7.14855 17.176 7.17922 17.1646C7.19657 17.1583 7.21432 17.1528 7.23208 17.1465C7.25952 17.137 7.28736 17.1276 7.31561 17.1189C7.33458 17.113 7.35395 17.1075 7.37291 17.102C7.40035 17.0941 7.42779 17.0862 7.45523 17.0792C7.47501 17.074 7.49478 17.0689 7.51496 17.0642C7.5424 17.0575 7.56984 17.0516 7.59768 17.0457C7.61786 17.0414 7.63803 17.037 7.65861 17.0331C7.68686 17.028 7.71511 17.0229 7.74376 17.0185C7.76394 17.015 7.78371 17.0118 7.80429 17.0091C7.83375 17.0048 7.86361 17.0012 7.89387 16.9977C7.91284 16.9957 7.93221 16.9929 7.95158 16.9914C7.98467 16.9882 8.01816 16.9859 8.05165 16.9839C8.0682 16.9827 8.08434 16.9811 8.10088 16.9807C8.15132 16.978 8.20136 16.9768 8.25221 16.9768C8.30305 16.9768 8.35309 16.978 8.40353 16.9807C8.42008 16.9811 8.43622 16.9827 8.45276 16.9839C8.48625 16.9859 8.51975 16.9882 8.55284 16.9914C8.57221 16.9929 8.59158 16.9957 8.61054 16.9977C8.64081 17.0012 8.67067 17.0048 8.70013 17.0091C8.72071 17.0118 8.74048 17.015 8.76065 17.0185C8.78931 17.0229 8.81755 17.028 8.8458 17.0331C8.86638 17.037 8.88656 17.0414 8.90673 17.0457C8.93458 17.0516 8.96202 17.0575 8.98946 17.0642C9.00964 17.0689 9.02941 17.074 9.04918 17.0792C9.07662 17.0862 9.10406 17.0941 9.1315 17.102C9.15047 17.1075 9.16984 17.113 9.1888 17.1189C9.21705 17.1276 9.24489 17.137 9.27233 17.1465C9.29009 17.1528 9.30784 17.1583 9.3252 17.1646C9.35586 17.176 9.38573 17.1878 9.41599 17.1996C9.43011 17.2055 9.44464 17.2107 9.45877 17.2166C9.50235 17.2347 9.54593 17.254 9.5887 17.274C9.59233 17.2756 9.59556 17.2772 9.59879 17.2791C9.63834 17.2977 9.67707 17.3169 9.71541 17.3374C9.72994 17.3449 9.74366 17.3528 9.75778 17.3606C9.78482 17.3756 9.81226 17.3906 9.83889 17.4063C9.85503 17.4158 9.87077 17.4256 9.88691 17.4354C9.91112 17.45 9.93533 17.465 9.95914 17.4807C9.97528 17.4913 9.99143 17.5024 10.008 17.5134C10.0306 17.5287 10.0532 17.5441 10.0754 17.5602C10.0915 17.5716 10.1076 17.5835 10.1234 17.5953C10.1452 17.6118 10.167 17.6283 10.1879 17.6449C10.2037 17.6571 10.219 17.6697 10.2344 17.6823C10.2557 17.6996 10.2767 17.7173 10.2973 17.7354C10.3118 17.748 10.3268 17.7606 10.3409 17.7732C10.3623 17.7925 10.3829 17.8122 10.4038 17.8319C10.4167 17.8441 10.4301 17.8563 10.443 17.8689C10.4656 17.8913 10.4882 17.9145 10.5104 17.9378C10.5201 17.948 10.5305 17.9582 10.5402 17.9689C10.5717 18.0027 10.6024 18.0374 10.6326 18.0728C10.6367 18.0779 10.6407 18.083 10.6447 18.0878C10.6702 18.1185 10.6956 18.1496 10.7198 18.1814C10.7299 18.194 10.7392 18.207 10.7489 18.22C10.767 18.2444 10.7852 18.2688 10.8025 18.2936C10.813 18.3086 10.8231 18.3244 10.8336 18.3397C10.8493 18.3629 10.8647 18.3862 10.8796 18.4098C10.8901 18.4263 10.9002 18.4428 10.9103 18.4594C10.9244 18.4826 10.9385 18.5062 10.9518 18.5298C10.9615 18.5472 10.9712 18.5645 10.9805 18.5818C10.9938 18.6054 11.0063 18.6298 11.0188 18.6539C11.0277 18.6716 11.0362 18.6889 11.045 18.7066C11.0572 18.7318 11.0684 18.757 11.0797 18.7822C11.0878 18.7995 11.0959 18.8168 11.1032 18.8346C11.1149 18.8613 11.1253 18.8885 11.1362 18.9156C11.1427 18.9322 11.1492 18.9487 11.1556 18.9653C11.1673 18.9967 11.1778 19.0282 11.1883 19.0601C11.1927 19.0731 11.1976 19.0857 11.2016 19.0987C11.2157 19.1436 11.2291 19.1892 11.2416 19.2349C11.2432 19.242 11.2448 19.2495 11.2464 19.2566C11.2565 19.2955 11.2658 19.3345 11.2743 19.3739C11.2779 19.3896 11.2807 19.4058 11.2835 19.4219C11.2884 19.4467 11.2936 19.4711 11.2981 19.4963H20.0151V4.87136C20.0151 4.59972 20.2411 4.37927 20.5195 4.37927H27.8126C27.8251 4.37927 27.8634 4.37927 27.8872 4.33557C27.911 4.29227 27.89 4.26117 27.8828 4.25132L26.3046 1.94125C26.1516 1.71764 25.8962 1.58419 25.6206 1.58419H12.4489C12.3755 1.58419 12.3065 1.61214 12.2544 1.66292L11.4199 2.47704C11.1774 2.71364 10.855 2.84394 10.512 2.84394H1.82557C1.37523 2.84394 1.00883 3.2014 1.00883 3.64074V16.2682Z" />
    </mask>
    <path
        d="M1.82557 1.85976H10.512C10.5854 1.85976 10.6544 1.83181 10.7065 1.78103L11.541 0.96691C11.7835 0.730312 12.1059 0.600006 12.4489 0.600006H25.6206C26.2339 0.600006 26.8033 0.897229 27.1439 1.39523L28.7225 3.7053C28.9465 4.03323 28.9671 4.45249 28.7766 4.8001C28.5861 5.14772 28.2165 5.36345 27.8126 5.36345H21.024V6.03269H24.5008C25.4224 6.03269 26.2517 6.56691 26.6133 7.39402L28.6491 12.0488L30.4323 12.7448C31.3846 13.1164 32 14.003 32 15.0037V19.3144C32 19.9573 31.4637 20.4805 30.8047 20.4805H28.7298C28.4885 21.9076 27.2149 23 25.6847 23C24.1546 23 22.881 21.9076 22.6397 20.4805H11.2973C11.0559 21.9076 9.7824 23 8.25221 23C6.72202 23 5.44847 21.9076 5.20716 20.4805H1.0625C0.476571 20.4805 -2.98023e-08 20.0156 -2.98023e-08 19.444V3.64074C-2.98023e-08 2.65852 0.818764 1.85976 1.82557 1.85976ZM25.6847 22.0158C26.8308 22.0158 27.7629 21.1064 27.7629 19.9884C27.7629 18.8704 26.8308 17.961 25.6847 17.961C24.5387 17.961 23.6066 18.8704 23.6066 19.9884C23.6066 21.1064 24.5387 22.0158 25.6847 22.0158ZM21.024 19.4963H22.6389C22.6429 19.4715 22.6482 19.4475 22.653 19.4231C22.6562 19.4066 22.6591 19.39 22.6627 19.3735C22.6708 19.3349 22.6801 19.2967 22.6897 19.2585C22.6918 19.2507 22.6934 19.2428 22.6958 19.2349C22.7079 19.1889 22.7212 19.1436 22.7353 19.0987C22.7394 19.0857 22.7442 19.0727 22.7487 19.0593C22.7591 19.0278 22.77 18.9964 22.7813 18.9653C22.7878 18.9487 22.7943 18.9322 22.8011 18.9156C22.8116 18.8885 22.8221 18.8613 22.8338 18.8346C22.8411 18.8168 22.8491 18.7995 22.8572 18.7822C22.8685 18.7566 22.8798 18.7318 22.8919 18.7066C22.9008 18.6889 22.9093 18.6716 22.9185 18.6539C22.9306 18.6298 22.9436 18.6054 22.9565 18.5818C22.9658 18.5645 22.9754 18.5472 22.9851 18.5298C22.9984 18.5062 23.0126 18.4826 23.0267 18.4594C23.0368 18.4428 23.0469 18.4263 23.0569 18.4098C23.0723 18.3862 23.0876 18.3629 23.1034 18.3393C23.1138 18.324 23.1239 18.3086 23.1344 18.2936C23.1518 18.2688 23.1699 18.2444 23.1885 18.22C23.1978 18.207 23.2071 18.194 23.2167 18.1814C23.2418 18.1492 23.2672 18.1181 23.293 18.087C23.2966 18.0822 23.3003 18.0775 23.3043 18.0728C23.3342 18.0374 23.3652 18.0027 23.3967 17.9689C23.4064 17.9582 23.4165 17.9484 23.4266 17.9382C23.4488 17.9149 23.471 17.8917 23.494 17.8689C23.5069 17.8563 23.5202 17.8441 23.5331 17.8319C23.5537 17.8122 23.5747 17.7925 23.5961 17.7732C23.6102 17.7606 23.6247 17.748 23.6392 17.7354C23.6602 17.7173 23.6812 17.6996 23.7026 17.6819L23.7486 17.6453C23.77 17.6283 23.7918 17.6118 23.8136 17.5953C23.8293 17.5835 23.8454 17.5716 23.8616 17.5602C23.8838 17.5441 23.9064 17.5287 23.9294 17.513C23.9455 17.5024 23.9617 17.4913 23.9778 17.4807C24.0016 17.465 24.0262 17.45 24.0504 17.435C24.0662 17.4256 24.0819 17.4158 24.0981 17.4063C24.1247 17.3906 24.1521 17.3756 24.1796 17.3606C24.1937 17.3528 24.2074 17.3449 24.2211 17.3374C24.2603 17.3169 24.2994 17.2973 24.339 17.2784C24.3422 17.2772 24.345 17.2756 24.3482 17.274C24.391 17.254 24.4346 17.2347 24.4782 17.2166C24.4923 17.2107 24.5068 17.2055 24.521 17.1996C24.5508 17.1878 24.5811 17.176 24.6118 17.1646C24.6291 17.1583 24.6469 17.1528 24.6642 17.1465C24.6921 17.137 24.7199 17.1276 24.7481 17.1189C24.7671 17.113 24.7861 17.1075 24.8054 17.102C24.8329 17.0941 24.8603 17.0862 24.8878 17.0792C24.9075 17.074 24.9273 17.0689 24.9475 17.0642C24.9749 17.0575 25.0024 17.0516 25.0302 17.0457C25.0504 17.0414 25.0706 17.037 25.0911 17.0331C25.1194 17.028 25.1476 17.0229 25.1763 17.0185C25.1965 17.015 25.2162 17.0118 25.2368 17.0091C25.2663 17.0048 25.2961 17.0012 25.3264 16.9977C25.3454 16.9957 25.3647 16.9929 25.3841 16.9914C25.4172 16.9882 25.4507 16.9859 25.4842 16.9839C25.5007 16.9827 25.5169 16.9811 25.5334 16.9807C25.5839 16.978 25.6339 16.9768 25.6847 16.9768C25.7356 16.9768 25.7856 16.978 25.8361 16.9807C25.8526 16.9811 25.8688 16.9827 25.8853 16.9839C25.9188 16.9859 25.9523 16.9882 25.9854 16.9914C26.0047 16.9929 26.0241 16.9957 26.0431 16.9977C26.0733 17.0012 26.1032 17.0048 26.1327 17.0091C26.1532 17.0118 26.173 17.015 26.1932 17.0185C26.2218 17.0229 26.2501 17.028 26.2783 17.0331C26.2989 17.037 26.3191 17.0414 26.3393 17.0457C26.3671 17.0516 26.3946 17.0575 26.422 17.0642C26.4422 17.0689 26.4619 17.074 26.4817 17.0792C26.5092 17.0862 26.5366 17.0941 26.564 17.102C26.5834 17.1075 26.6024 17.113 26.6213 17.1189C26.6496 17.1276 26.6774 17.137 26.7053 17.1465C26.7226 17.1528 26.7404 17.1583 26.7577 17.1646C26.7884 17.176 26.8187 17.1878 26.8485 17.1996C26.8626 17.2055 26.8772 17.2107 26.8913 17.2166C26.9349 17.2347 26.9785 17.254 27.0212 17.274C27.0245 17.2756 27.0273 17.2772 27.0305 17.2784C27.0701 17.2973 27.1092 17.3169 27.1483 17.3374C27.1621 17.3449 27.1758 17.3528 27.1899 17.3606C27.2174 17.3756 27.2448 17.3906 27.2714 17.4063C27.2876 17.4158 27.3033 17.4256 27.319 17.435C27.3433 17.45 27.3679 17.465 27.3917 17.4807C27.4078 17.4913 27.424 17.5024 27.4401 17.513C27.4631 17.5287 27.4857 17.5441 27.5079 17.5602C27.524 17.5716 27.5402 17.5835 27.5559 17.5953C27.5777 17.6118 27.5995 17.6283 27.6209 17.6453L27.6669 17.6819C27.6883 17.6996 27.7093 17.7173 27.7302 17.7354C27.7448 17.748 27.7593 17.7606 27.7734 17.7732C27.7948 17.7925 27.8158 17.8122 27.8364 17.8319C27.8493 17.8441 27.8626 17.8563 27.8755 17.8689C27.8985 17.8917 27.9207 17.9149 27.9429 17.9382C27.953 17.9484 27.9631 17.9582 27.9728 17.9689C28.0042 18.0027 28.0353 18.0374 28.0652 18.0728C28.0692 18.0775 28.0728 18.0822 28.0765 18.087C28.1023 18.1181 28.1277 18.1492 28.1527 18.1814C28.1624 18.194 28.1717 18.207 28.181 18.22C28.1995 18.2444 28.2177 18.2688 28.2351 18.2936C28.2455 18.3086 28.2556 18.324 28.2661 18.3393C28.2819 18.3629 28.2972 18.3862 28.3125 18.4098C28.3226 18.4263 28.3327 18.4428 28.3428 18.4594C28.3569 18.4826 28.371 18.5062 28.3844 18.5298C28.394 18.5472 28.4037 18.5645 28.413 18.5818C28.4259 18.6054 28.4388 18.6298 28.4509 18.6539C28.4602 18.6716 28.4687 18.6889 28.4776 18.7066C28.4897 18.7318 28.501 18.7566 28.5123 18.7822C28.5204 18.7995 28.5284 18.8168 28.5357 18.8346C28.5474 18.8613 28.5579 18.8885 28.5684 18.9156C28.5752 18.9322 28.5817 18.9487 28.5881 18.9653C28.5994 18.9964 28.6103 19.0278 28.6208 19.0593C28.6253 19.0727 28.6301 19.0857 28.6341 19.0987C28.6483 19.1436 28.6616 19.1889 28.6737 19.2349C28.6761 19.2428 28.6777 19.2507 28.6797 19.2585C28.6894 19.2967 28.6987 19.3349 28.7068 19.3735C28.7104 19.39 28.7132 19.4066 28.7165 19.4231C28.7213 19.4475 28.7266 19.4715 28.7306 19.4963H30.8047C30.9076 19.4963 30.9912 19.4148 30.9912 19.3144V17.2524H30.2043V16.2682H30.9912V15.0037C30.9912 14.4077 30.6248 13.8798 30.0578 13.6585L28.1701 12.922H21.024V19.4963ZM21.024 11.9378H27.5039L25.6855 7.78021C25.4826 7.31646 25.0177 7.01688 24.5008 7.01688H21.024V11.9378ZM8.25221 22.0158C9.39823 22.0158 10.3304 21.1064 10.3304 19.9884C10.3304 18.8704 9.39823 17.961 8.25221 17.961C8.21629 17.961 8.18078 17.9618 8.14527 17.9637C7.19052 18.011 6.40363 18.6905 6.21639 19.5802C6.20953 19.6132 6.20308 19.6467 6.19783 19.6802C6.18734 19.7471 6.18048 19.8152 6.17685 19.8841C6.17483 19.9187 6.17402 19.9534 6.17402 19.9884C6.17402 21.1064 7.10618 22.0158 8.25221 22.0158ZM1.00883 16.2682H1.79571V17.2524H1.00883V19.444C1.00883 19.4727 1.03304 19.4963 1.0625 19.4963H5.20636C5.21039 19.4719 5.21564 19.4479 5.22048 19.4239C5.22371 19.407 5.22653 19.39 5.23016 19.3731C5.23823 19.3353 5.24711 19.2979 5.2568 19.2609C5.25922 19.2522 5.26083 19.2432 5.26325 19.2345C5.27536 19.1889 5.28867 19.144 5.3028 19.0991C5.30724 19.0853 5.31208 19.0715 5.31652 19.0582C5.32701 19.0271 5.3375 18.996 5.3488 18.9656C5.35526 18.9483 5.36212 18.9318 5.36857 18.9149C5.37907 18.8881 5.38996 18.8613 5.40086 18.8349C5.40853 18.8168 5.41659 18.7991 5.42467 18.7814C5.43596 18.7566 5.44726 18.7318 5.45937 18.707C5.46784 18.6889 5.47713 18.6712 5.486 18.6535C5.49811 18.6294 5.51062 18.6058 5.52353 18.5818C5.53322 18.5645 5.5429 18.5472 5.55258 18.5298C5.5663 18.5062 5.58003 18.483 5.59415 18.4598C5.60424 18.4428 5.61433 18.4263 5.62482 18.4098C5.63975 18.3862 5.65508 18.3629 5.67082 18.3401C5.68091 18.3244 5.6914 18.3086 5.70189 18.2936C5.71924 18.2688 5.7374 18.2448 5.75516 18.2208C5.76484 18.2074 5.77453 18.194 5.78461 18.1811C5.80883 18.15 5.83344 18.1192 5.85887 18.0889C5.8633 18.0834 5.86734 18.0779 5.87178 18.0728C5.90204 18.0374 5.93271 18.0027 5.96419 17.9689C5.97427 17.9582 5.98436 17.948 5.99445 17.9374C6.01665 17.9141 6.03884 17.8913 6.06144 17.8689C6.07435 17.8563 6.08767 17.8441 6.10098 17.8315C6.12156 17.8118 6.14214 17.7925 6.16353 17.7732C6.17765 17.7606 6.19259 17.748 6.20711 17.735C6.22769 17.7173 6.24868 17.6996 6.27006 17.6823C6.2854 17.6697 6.30073 17.6571 6.31647 17.6449C6.33745 17.6283 6.35924 17.6118 6.38103 17.5953C6.39677 17.5835 6.41291 17.5716 6.42905 17.5602C6.45125 17.5441 6.47385 17.5287 6.49644 17.5134C6.51299 17.5024 6.52913 17.4913 6.54527 17.4807C6.56908 17.465 6.59329 17.45 6.6175 17.4354C6.63364 17.4256 6.64938 17.4158 6.66552 17.4063C6.69216 17.3906 6.71919 17.3756 6.74663 17.3606C6.76076 17.3528 6.77448 17.3449 6.789 17.3374C6.82734 17.3169 6.86608 17.2977 6.90562 17.2791C6.90885 17.2776 6.91208 17.2756 6.91571 17.274C6.95849 17.254 7.00207 17.2347 7.04565 17.2166C7.05977 17.2107 7.0743 17.2055 7.08842 17.1996C7.11869 17.1878 7.14855 17.176 7.17922 17.1646C7.19657 17.1583 7.21432 17.1528 7.23208 17.1465C7.25952 17.137 7.28736 17.1276 7.31561 17.1189C7.33458 17.113 7.35395 17.1075 7.37291 17.102C7.40035 17.0941 7.42779 17.0862 7.45523 17.0792C7.47501 17.074 7.49478 17.0689 7.51496 17.0642C7.5424 17.0575 7.56984 17.0516 7.59768 17.0457C7.61786 17.0414 7.63803 17.037 7.65861 17.0331C7.68686 17.028 7.71511 17.0229 7.74376 17.0185C7.76394 17.015 7.78371 17.0118 7.80429 17.0091C7.83375 17.0048 7.86361 17.0012 7.89387 16.9977C7.91284 16.9957 7.93221 16.9929 7.95158 16.9914C7.98467 16.9882 8.01816 16.9859 8.05165 16.9839C8.0682 16.9827 8.08434 16.9811 8.10088 16.9807C8.15132 16.978 8.20136 16.9768 8.25221 16.9768C8.30305 16.9768 8.35309 16.978 8.40353 16.9807C8.42008 16.9811 8.43622 16.9827 8.45276 16.9839C8.48625 16.9859 8.51975 16.9882 8.55284 16.9914C8.57221 16.9929 8.59158 16.9957 8.61054 16.9977C8.64081 17.0012 8.67067 17.0048 8.70013 17.0091C8.72071 17.0118 8.74048 17.015 8.76065 17.0185C8.78931 17.0229 8.81755 17.028 8.8458 17.0331C8.86638 17.037 8.88656 17.0414 8.90673 17.0457C8.93458 17.0516 8.96202 17.0575 8.98946 17.0642C9.00964 17.0689 9.02941 17.074 9.04918 17.0792C9.07662 17.0862 9.10406 17.0941 9.1315 17.102C9.15047 17.1075 9.16984 17.113 9.1888 17.1189C9.21705 17.1276 9.24489 17.137 9.27233 17.1465C9.29009 17.1528 9.30784 17.1583 9.3252 17.1646C9.35586 17.176 9.38573 17.1878 9.41599 17.1996C9.43011 17.2055 9.44464 17.2107 9.45877 17.2166C9.50235 17.2347 9.54593 17.254 9.5887 17.274C9.59233 17.2756 9.59556 17.2772 9.59879 17.2791C9.63834 17.2977 9.67707 17.3169 9.71541 17.3374C9.72994 17.3449 9.74366 17.3528 9.75778 17.3606C9.78482 17.3756 9.81226 17.3906 9.83889 17.4063C9.85503 17.4158 9.87077 17.4256 9.88691 17.4354C9.91112 17.45 9.93533 17.465 9.95914 17.4807C9.97528 17.4913 9.99143 17.5024 10.008 17.5134C10.0306 17.5287 10.0532 17.5441 10.0754 17.5602C10.0915 17.5716 10.1076 17.5835 10.1234 17.5953C10.1452 17.6118 10.167 17.6283 10.1879 17.6449C10.2037 17.6571 10.219 17.6697 10.2344 17.6823C10.2557 17.6996 10.2767 17.7173 10.2973 17.7354C10.3118 17.748 10.3268 17.7606 10.3409 17.7732C10.3623 17.7925 10.3829 17.8122 10.4038 17.8319C10.4167 17.8441 10.4301 17.8563 10.443 17.8689C10.4656 17.8913 10.4882 17.9145 10.5104 17.9378C10.5201 17.948 10.5305 17.9582 10.5402 17.9689C10.5717 18.0027 10.6024 18.0374 10.6326 18.0728C10.6367 18.0779 10.6407 18.083 10.6447 18.0878C10.6702 18.1185 10.6956 18.1496 10.7198 18.1814C10.7299 18.194 10.7392 18.207 10.7489 18.22C10.767 18.2444 10.7852 18.2688 10.8025 18.2936C10.813 18.3086 10.8231 18.3244 10.8336 18.3397C10.8493 18.3629 10.8647 18.3862 10.8796 18.4098C10.8901 18.4263 10.9002 18.4428 10.9103 18.4594C10.9244 18.4826 10.9385 18.5062 10.9518 18.5298C10.9615 18.5472 10.9712 18.5645 10.9805 18.5818C10.9938 18.6054 11.0063 18.6298 11.0188 18.6539C11.0277 18.6716 11.0362 18.6889 11.045 18.7066C11.0572 18.7318 11.0684 18.757 11.0797 18.7822C11.0878 18.7995 11.0959 18.8168 11.1032 18.8346C11.1149 18.8613 11.1253 18.8885 11.1362 18.9156C11.1427 18.9322 11.1492 18.9487 11.1556 18.9653C11.1673 18.9967 11.1778 19.0282 11.1883 19.0601C11.1927 19.0731 11.1976 19.0857 11.2016 19.0987C11.2157 19.1436 11.2291 19.1892 11.2416 19.2349C11.2432 19.242 11.2448 19.2495 11.2464 19.2566C11.2565 19.2955 11.2658 19.3345 11.2743 19.3739C11.2779 19.3896 11.2807 19.4058 11.2835 19.4219C11.2884 19.4467 11.2936 19.4711 11.2981 19.4963H20.0151V4.87136C20.0151 4.59972 20.2411 4.37927 20.5195 4.37927H27.8126C27.8251 4.37927 27.8634 4.37927 27.8872 4.33557C27.911 4.29227 27.89 4.26117 27.8828 4.25132L26.3046 1.94125C26.1516 1.71764 25.8962 1.58419 25.6206 1.58419H12.4489C12.3755 1.58419 12.3065 1.61214 12.2544 1.66292L11.4199 2.47704C11.1774 2.71364 10.855 2.84394 10.512 2.84394H1.82557C1.37523 2.84394 1.00883 3.2014 1.00883 3.64074V16.2682Z"
        fill="white" stroke="white" stroke-width="6" mask="url(#path-1-inside-1_15047_180)" />
    <mask id="path-2-inside-2_15047_180" fill="white">
        <path
            d="M14.0812 5.6385H17.2719C17.9163 5.6385 18.4409 6.14988 18.4409 6.77897V17.3109C18.4409 17.5825 18.2149 17.803 17.9365 17.803H13.417C13.1385 17.803 12.9125 17.5825 12.9125 17.3109V6.77897C12.9121 6.14988 13.4363 5.6385 14.0812 5.6385ZM13.921 16.8188H17.4317V11.0318H13.921V16.8188ZM13.921 10.0476H17.4317V6.77897C17.4317 6.69275 17.3599 6.62268 17.2715 6.62268H14.0808C13.9924 6.62268 13.9206 6.69275 13.9206 6.77897V10.0476H13.921ZM3.87506 5.6385H10.0451C10.7581 5.6385 11.3384 6.2046 11.3384 6.90022V9.77049C11.3384 10.4661 10.7581 11.0322 10.0451 11.0322H3.87466C3.16162 11.0322 2.58134 10.4661 2.58134 9.77049V6.90022C2.58175 6.2046 3.16202 5.6385 3.87506 5.6385ZM3.59057 9.77009C3.59057 9.92284 3.71809 10.0476 3.87506 10.0476H10.0451C10.202 10.0476 10.3295 9.92323 10.3295 9.77009V6.89982C10.3295 6.74708 10.202 6.62228 10.0451 6.62228H3.87466C3.71769 6.62228 3.59017 6.74669 3.59017 6.89982V9.77009H3.59057Z" />
    </mask>
    <path
        d="M14.0812 5.6385H17.2719C17.9163 5.6385 18.4409 6.14988 18.4409 6.77897V17.3109C18.4409 17.5825 18.2149 17.803 17.9365 17.803H13.417C13.1385 17.803 12.9125 17.5825 12.9125 17.3109V6.77897C12.9121 6.14988 13.4363 5.6385 14.0812 5.6385ZM13.921 16.8188H17.4317V11.0318H13.921V16.8188ZM13.921 10.0476H17.4317V6.77897C17.4317 6.69275 17.3599 6.62268 17.2715 6.62268H14.0808C13.9924 6.62268 13.9206 6.69275 13.9206 6.77897V10.0476H13.921ZM3.87506 5.6385H10.0451C10.7581 5.6385 11.3384 6.2046 11.3384 6.90022V9.77049C11.3384 10.4661 10.7581 11.0322 10.0451 11.0322H3.87466C3.16162 11.0322 2.58134 10.4661 2.58134 9.77049V6.90022C2.58175 6.2046 3.16202 5.6385 3.87506 5.6385ZM3.59057 9.77009C3.59057 9.92284 3.71809 10.0476 3.87506 10.0476H10.0451C10.202 10.0476 10.3295 9.92323 10.3295 9.77009V6.89982C10.3295 6.74708 10.202 6.62228 10.0451 6.62228H3.87466C3.71769 6.62228 3.59017 6.74669 3.59017 6.89982V9.77009H3.59057Z"
        fill="white" />
    <path
        d="M12.9125 6.77897L15.9125 6.77704V6.77897H12.9125ZM13.921 16.8188V19.8188H10.921V16.8188H13.921ZM17.4317 16.8188H20.4317V19.8188H17.4317V16.8188ZM17.4317 11.0318V8.03181H20.4317V11.0318H17.4317ZM13.921 11.0318H10.921V8.03181H13.921V11.0318ZM17.4317 10.0476H20.4317V13.0476H17.4317V10.0476ZM13.9206 10.0476V13.0476H10.9206V10.0476H13.9206ZM2.58134 6.90022L-0.418658 6.90022L-0.418657 6.89848L2.58134 6.90022ZM3.59057 9.77009V6.77009H6.59057V9.77009H3.59057ZM3.59017 9.77009V12.7701H0.59017V9.77009H3.59017ZM14.0812 2.6385H17.2719V8.6385H14.0812V2.6385ZM17.2719 2.6385C19.5021 2.6385 21.4409 4.42284 21.4409 6.77897H15.4409C15.4409 7.87691 16.3305 8.6385 17.2719 8.6385V2.6385ZM21.4409 6.77897V17.3109H15.4409V6.77897H21.4409ZM21.4409 17.3109C21.4409 19.3089 19.8014 20.803 17.9365 20.803V14.803C16.6285 14.803 15.4409 15.8562 15.4409 17.3109H21.4409ZM17.9365 20.803H13.417V14.803H17.9365V20.803ZM13.417 20.803C11.552 20.803 9.91254 19.3089 9.91254 17.3109H15.9125C15.9125 15.8562 14.725 14.803 13.417 14.803V20.803ZM9.91254 17.3109V6.77897H15.9125V17.3109H9.91254ZM9.91254 6.78089C9.91103 4.42354 11.8503 2.6385 14.0812 2.6385V8.6385C15.0224 8.6385 15.9132 7.87622 15.9125 6.77704L9.91254 6.78089ZM13.921 13.8188H17.4317V19.8188H13.921V13.8188ZM14.4317 16.8188V11.0318H20.4317V16.8188H14.4317ZM17.4317 14.0318H13.921V8.03181H17.4317V14.0318ZM16.921 11.0318V16.8188H10.921V11.0318H16.921ZM13.921 7.04763H17.4317V13.0476H13.921V7.04763ZM14.4317 10.0476V6.77897H20.4317V10.0476H14.4317ZM14.4317 6.77897C14.4317 8.41912 15.7734 9.62268 17.2715 9.62268V3.62268C18.9463 3.62268 20.4317 4.96638 20.4317 6.77897H14.4317ZM17.2715 9.62268H14.0808V3.62268H17.2715V9.62268ZM14.0808 9.62268C15.5788 9.62268 16.9206 8.41915 16.9206 6.77897H10.9206C10.9206 4.96635 12.4059 3.62268 14.0808 3.62268V9.62268ZM16.9206 6.77897V10.0476H10.9206V6.77897H16.9206ZM13.9206 7.04763H13.921V13.0476H13.9206V7.04763ZM3.87506 2.6385H10.0451V8.6385H3.87506V2.6385ZM10.0451 2.6385C12.3446 2.6385 14.3384 4.47823 14.3384 6.90022H8.33837C8.33837 7.93097 9.17162 8.6385 10.0451 8.6385V2.6385ZM14.3384 6.90022V9.77049H8.33837V6.90022H14.3384ZM14.3384 9.77049C14.3384 12.1925 12.3446 14.0322 10.0451 14.0322V8.03221C9.17161 8.03221 8.33837 8.73974 8.33837 9.77049H14.3384ZM10.0451 14.0322H3.87466V8.03221H10.0451V14.0322ZM3.87466 14.0322C1.57514 14.0322 -0.418657 12.1925 -0.418657 9.77049H5.58134C5.58134 8.73974 4.7481 8.03221 3.87466 8.03221V14.0322ZM-0.418657 9.77049V6.90022H5.58134V9.77049H-0.418657ZM-0.418657 6.89848C-0.417253 4.47821 1.57517 2.6385 3.87506 2.6385V8.6385C4.74888 8.6385 5.58075 7.93099 5.58134 6.90196L-0.418657 6.89848ZM6.59057 9.77009C6.59057 8.19921 5.30737 7.04763 3.87506 7.04763V13.0476C2.12881 13.0476 0.590574 11.6465 0.590574 9.77009H6.59057ZM3.87506 7.04763H10.0451V13.0476H3.87506V7.04763ZM10.0451 7.04763C8.61555 7.04763 7.32954 8.19686 7.32954 9.77009H13.3295C13.3295 11.6496 11.7885 13.0476 10.0451 13.0476V7.04763ZM7.32954 9.77009V6.89982H13.3295V9.77009H7.32954ZM7.32954 6.89982C7.32954 8.4707 8.61273 9.62228 10.0451 9.62228V3.62228C11.7913 3.62228 13.3295 5.02346 13.3295 6.89982H7.32954ZM10.0451 9.62228H3.87466V3.62228H10.0451V9.62228ZM3.87466 9.62228C5.30418 9.62228 6.59017 8.47304 6.59017 6.89982H0.59017C0.59017 5.02033 2.13119 3.62228 3.87466 3.62228V9.62228ZM6.59017 6.89982V9.77009H0.59017V6.89982H6.59017ZM3.59017 6.77009H3.59057V12.7701H3.59017V6.77009Z"
        fill="white" mask="url(#path-2-inside-2_15047_180)" />
</svg>