<svg width="40" height="40" viewBox="0 0 40 40" fill="none" xmlns="http://www.w3.org/2000/svg">
    <rect width="40" height="40" rx="12" fill="#E44848" />
    <mask id="path-2-inside-1_15086_197" fill="white">
        <path
            d="M5.82557 9.85976H14.512C14.5854 9.85976 14.6544 9.83181 14.7065 9.78103L15.541 8.96691C15.7835 8.73031 16.1059 8.60001 16.4489 8.60001H29.6206C30.2339 8.60001 30.8033 8.89723 31.1439 9.39523L32.7225 11.7053C32.9465 12.0332 32.9671 12.4525 32.7766 12.8001C32.5861 13.1477 32.2165 13.3635 31.8126 13.3635H25.024V14.0327H28.5008C29.4224 14.0327 30.2517 14.5669 30.6133 15.394L32.6491 20.0488L34.4323 20.7448C35.3846 21.1164 36 22.003 36 23.0037V27.3144C36 27.9573 35.4637 28.4805 34.8047 28.4805H32.7298C32.4885 29.9076 31.2149 31 29.6847 31C28.1546 31 26.881 29.9076 26.6397 28.4805H15.2973C15.0559 29.9076 13.7824 31 12.2522 31C10.722 31 9.44847 29.9076 9.20716 28.4805H5.0625C4.47657 28.4805 4 28.0156 4 27.444V11.6407C4 10.6585 4.81876 9.85976 5.82557 9.85976ZM29.6847 30.0158C30.8308 30.0158 31.7629 29.1064 31.7629 27.9884C31.7629 26.8704 30.8308 25.961 29.6847 25.961C28.5387 25.961 27.6066 26.8704 27.6066 27.9884C27.6066 29.1064 28.5387 30.0158 29.6847 30.0158ZM25.024 27.4963H26.6389C26.6429 27.4715 26.6482 27.4475 26.653 27.4231C26.6562 27.4066 26.6591 27.39 26.6627 27.3735C26.6708 27.3349 26.6801 27.2967 26.6897 27.2585C26.6918 27.2507 26.6934 27.2428 26.6958 27.2349C26.7079 27.1889 26.7212 27.1436 26.7353 27.0987C26.7394 27.0857 26.7442 27.0727 26.7487 27.0593C26.7591 27.0278 26.77 26.9964 26.7813 26.9653C26.7878 26.9487 26.7943 26.9322 26.8011 26.9156C26.8116 26.8885 26.8221 26.8613 26.8338 26.8346C26.8411 26.8168 26.8491 26.7995 26.8572 26.7822C26.8685 26.7566 26.8798 26.7318 26.8919 26.7066C26.9008 26.6889 26.9093 26.6716 26.9185 26.6539C26.9306 26.6298 26.9436 26.6054 26.9565 26.5818C26.9658 26.5645 26.9754 26.5472 26.9851 26.5298C26.9984 26.5062 27.0126 26.4826 27.0267 26.4594C27.0368 26.4428 27.0469 26.4263 27.0569 26.4098C27.0723 26.3862 27.0876 26.3629 27.1034 26.3393C27.1138 26.324 27.1239 26.3086 27.1344 26.2936C27.1518 26.2688 27.1699 26.2444 27.1885 26.22C27.1978 26.207 27.2071 26.194 27.2167 26.1814C27.2418 26.1492 27.2672 26.1181 27.293 26.087C27.2966 26.0822 27.3003 26.0775 27.3043 26.0728C27.3342 26.0374 27.3652 26.0027 27.3967 25.9689C27.4064 25.9582 27.4165 25.9484 27.4266 25.9382C27.4488 25.9149 27.471 25.8917 27.494 25.8689C27.5069 25.8563 27.5202 25.8441 27.5331 25.8319C27.5537 25.8122 27.5747 25.7925 27.5961 25.7732C27.6102 25.7606 27.6247 25.748 27.6392 25.7354C27.6602 25.7173 27.6812 25.6996 27.7026 25.6819L27.7486 25.6453C27.77 25.6283 27.7918 25.6118 27.8136 25.5953C27.8293 25.5835 27.8454 25.5716 27.8616 25.5602C27.8838 25.5441 27.9064 25.5287 27.9294 25.513C27.9455 25.5024 27.9617 25.4913 27.9778 25.4807C28.0016 25.465 28.0262 25.45 28.0504 25.435C28.0662 25.4256 28.0819 25.4158 28.0981 25.4063C28.1247 25.3906 28.1521 25.3756 28.1796 25.3606C28.1937 25.3528 28.2074 25.3449 28.2211 25.3374C28.2603 25.3169 28.2994 25.2973 28.339 25.2784C28.3422 25.2772 28.345 25.2756 28.3482 25.274C28.391 25.254 28.4346 25.2347 28.4782 25.2166C28.4923 25.2107 28.5068 25.2055 28.521 25.1996C28.5508 25.1878 28.5811 25.176 28.6118 25.1646C28.6291 25.1583 28.6469 25.1528 28.6642 25.1465C28.6921 25.137 28.7199 25.1276 28.7481 25.1189C28.7671 25.113 28.7861 25.1075 28.8054 25.102C28.8329 25.0941 28.8603 25.0862 28.8878 25.0792C28.9075 25.074 28.9273 25.0689 28.9475 25.0642C28.9749 25.0575 29.0024 25.0516 29.0302 25.0457C29.0504 25.0414 29.0706 25.037 29.0911 25.0331C29.1194 25.028 29.1476 25.0229 29.1763 25.0185C29.1965 25.015 29.2162 25.0118 29.2368 25.0091C29.2663 25.0048 29.2961 25.0012 29.3264 24.9977C29.3454 24.9957 29.3647 24.9929 29.3841 24.9914C29.4172 24.9882 29.4507 24.9859 29.4842 24.9839C29.5007 24.9827 29.5169 24.9811 29.5334 24.9807C29.5839 24.978 29.6339 24.9768 29.6847 24.9768C29.7356 24.9768 29.7856 24.978 29.8361 24.9807C29.8526 24.9811 29.8688 24.9827 29.8853 24.9839C29.9188 24.9859 29.9523 24.9882 29.9854 24.9914C30.0047 24.9929 30.0241 24.9957 30.0431 24.9977C30.0733 25.0012 30.1032 25.0048 30.1327 25.0091C30.1532 25.0118 30.173 25.015 30.1932 25.0185C30.2218 25.0229 30.2501 25.028 30.2783 25.0331C30.2989 25.037 30.3191 25.0414 30.3393 25.0457C30.3671 25.0516 30.3946 25.0575 30.422 25.0642C30.4422 25.0689 30.4619 25.074 30.4817 25.0792C30.5092 25.0862 30.5366 25.0941 30.564 25.102C30.5834 25.1075 30.6024 25.113 30.6213 25.1189C30.6496 25.1276 30.6774 25.137 30.7053 25.1465C30.7226 25.1528 30.7404 25.1583 30.7577 25.1646C30.7884 25.176 30.8187 25.1878 30.8485 25.1996C30.8626 25.2055 30.8772 25.2107 30.8913 25.2166C30.9349 25.2347 30.9785 25.254 31.0212 25.274C31.0245 25.2756 31.0273 25.2772 31.0305 25.2784C31.0701 25.2973 31.1092 25.3169 31.1483 25.3374C31.1621 25.3449 31.1758 25.3528 31.1899 25.3606C31.2174 25.3756 31.2448 25.3906 31.2714 25.4063C31.2876 25.4158 31.3033 25.4256 31.319 25.435C31.3433 25.45 31.3679 25.465 31.3917 25.4807C31.4078 25.4913 31.424 25.5024 31.4401 25.513C31.4631 25.5287 31.4857 25.5441 31.5079 25.5602C31.524 25.5716 31.5402 25.5835 31.5559 25.5953C31.5777 25.6118 31.5995 25.6283 31.6209 25.6453L31.6669 25.6819C31.6883 25.6996 31.7093 25.7173 31.7302 25.7354C31.7448 25.748 31.7593 25.7606 31.7734 25.7732C31.7948 25.7925 31.8158 25.8122 31.8364 25.8319C31.8493 25.8441 31.8626 25.8563 31.8755 25.8689C31.8985 25.8917 31.9207 25.9149 31.9429 25.9382C31.953 25.9484 31.9631 25.9582 31.9728 25.9689C32.0042 26.0027 32.0353 26.0374 32.0652 26.0728C32.0692 26.0775 32.0728 26.0822 32.0765 26.087C32.1023 26.1181 32.1277 26.1492 32.1527 26.1814C32.1624 26.194 32.1717 26.207 32.181 26.22C32.1995 26.2444 32.2177 26.2688 32.2351 26.2936C32.2455 26.3086 32.2556 26.324 32.2661 26.3393C32.2819 26.3629 32.2972 26.3862 32.3125 26.4098C32.3226 26.4263 32.3327 26.4428 32.3428 26.4594C32.3569 26.4826 32.371 26.5062 32.3844 26.5298C32.394 26.5472 32.4037 26.5645 32.413 26.5818C32.4259 26.6054 32.4388 26.6298 32.4509 26.6539C32.4602 26.6716 32.4687 26.6889 32.4776 26.7066C32.4897 26.7318 32.501 26.7566 32.5123 26.7822C32.5204 26.7995 32.5284 26.8168 32.5357 26.8346C32.5474 26.8613 32.5579 26.8885 32.5684 26.9156C32.5752 26.9322 32.5817 26.9487 32.5881 26.9653C32.5994 26.9964 32.6103 27.0278 32.6208 27.0593C32.6253 27.0727 32.6301 27.0857 32.6341 27.0987C32.6483 27.1436 32.6616 27.1889 32.6737 27.2349C32.6761 27.2428 32.6777 27.2507 32.6797 27.2585C32.6894 27.2967 32.6987 27.3349 32.7068 27.3735C32.7104 27.39 32.7132 27.4066 32.7165 27.4231C32.7213 27.4475 32.7266 27.4715 32.7306 27.4963H34.8047C34.9076 27.4963 34.9912 27.4148 34.9912 27.3144V25.2524H34.2043V24.2682H34.9912V23.0037C34.9912 22.4077 34.6248 21.8798 34.0578 21.6585L32.1701 20.922H25.024V27.4963ZM25.024 19.9378H31.5039L29.6855 15.7802C29.4826 15.3165 29.0177 15.0169 28.5008 15.0169H25.024V19.9378ZM12.2522 30.0158C13.3982 30.0158 14.3304 29.1064 14.3304 27.9884C14.3304 26.8704 13.3982 25.961 12.2522 25.961C12.2163 25.961 12.1808 25.9618 12.1453 25.9637C11.1905 26.011 10.4036 26.6905 10.2164 27.5802C10.2095 27.6132 10.2031 27.6467 10.1978 27.6802C10.1873 27.7471 10.1805 27.8152 10.1768 27.8841C10.1748 27.9187 10.174 27.9534 10.174 27.9884C10.174 29.1064 11.1062 30.0158 12.2522 30.0158ZM5.00883 24.2682H5.79571V25.2524H5.00883V27.444C5.00883 27.4727 5.03304 27.4963 5.0625 27.4963H9.20636C9.21039 27.4719 9.21564 27.4479 9.22048 27.4239C9.22371 27.407 9.22653 27.39 9.23016 27.3731C9.23823 27.3353 9.24711 27.2979 9.2568 27.2609C9.25922 27.2522 9.26083 27.2432 9.26325 27.2345C9.27536 27.1889 9.28867 27.144 9.3028 27.0991C9.30724 27.0853 9.31208 27.0715 9.31652 27.0582C9.32701 27.0271 9.3375 26.996 9.3488 26.9656C9.35526 26.9483 9.36212 26.9318 9.36857 26.9149C9.37907 26.8881 9.38996 26.8613 9.40086 26.8349C9.40853 26.8168 9.41659 26.7991 9.42467 26.7814C9.43596 26.7566 9.44726 26.7318 9.45937 26.707C9.46784 26.6889 9.47713 26.6712 9.486 26.6535C9.49811 26.6294 9.51062 26.6058 9.52353 26.5818C9.53322 26.5645 9.5429 26.5472 9.55258 26.5298C9.5663 26.5062 9.58003 26.483 9.59415 26.4598C9.60424 26.4428 9.61433 26.4263 9.62482 26.4098C9.63975 26.3862 9.65508 26.3629 9.67082 26.3401C9.68091 26.3244 9.6914 26.3086 9.70189 26.2936C9.71924 26.2688 9.7374 26.2448 9.75516 26.2208C9.76484 26.2074 9.77453 26.194 9.78461 26.1811C9.80883 26.15 9.83344 26.1192 9.85887 26.0889C9.8633 26.0834 9.86734 26.0779 9.87178 26.0728C9.90204 26.0374 9.93271 26.0027 9.96419 25.9689C9.97427 25.9582 9.98436 25.948 9.99445 25.9374C10.0166 25.9141 10.0388 25.8913 10.0614 25.8689C10.0744 25.8563 10.0877 25.8441 10.101 25.8315C10.1216 25.8118 10.1421 25.7925 10.1635 25.7732C10.1777 25.7606 10.1926 25.748 10.2071 25.735C10.2277 25.7173 10.2487 25.6996 10.2701 25.6823C10.2854 25.6697 10.3007 25.6571 10.3165 25.6449C10.3375 25.6283 10.3592 25.6118 10.381 25.5953C10.3968 25.5835 10.4129 25.5716 10.4291 25.5602C10.4512 25.5441 10.4738 25.5287 10.4964 25.5134C10.513 25.5024 10.5291 25.4913 10.5453 25.4807C10.5691 25.465 10.5933 25.45 10.6175 25.4354C10.6336 25.4256 10.6494 25.4158 10.6655 25.4063C10.6922 25.3906 10.7192 25.3756 10.7466 25.3606C10.7608 25.3528 10.7745 25.3449 10.789 25.3374C10.8273 25.3169 10.8661 25.2977 10.9056 25.2791C10.9089 25.2776 10.9121 25.2756 10.9157 25.274C10.9585 25.254 11.0021 25.2347 11.0456 25.2166C11.0598 25.2107 11.0743 25.2055 11.0884 25.1996C11.1187 25.1878 11.1485 25.176 11.1792 25.1646C11.1966 25.1583 11.2143 25.1528 11.2321 25.1465C11.2595 25.137 11.2874 25.1276 11.3156 25.1189C11.3346 25.113 11.3539 25.1075 11.3729 25.102C11.4004 25.0941 11.4278 25.0862 11.4552 25.0792C11.475 25.074 11.4948 25.0689 11.515 25.0642C11.5424 25.0575 11.5698 25.0516 11.5977 25.0457C11.6179 25.0414 11.638 25.037 11.6586 25.0331C11.6869 25.028 11.7151 25.0229 11.7438 25.0185C11.7639 25.015 11.7837 25.0118 11.8043 25.0091C11.8337 25.0048 11.8636 25.0012 11.8939 24.9977C11.9128 24.9957 11.9322 24.9929 11.9516 24.9914C11.9847 24.9882 12.0182 24.9859 12.0517 24.9839C12.0682 24.9827 12.0843 24.9811 12.1009 24.9807C12.1513 24.978 12.2014 24.9768 12.2522 24.9768C12.3031 24.9768 12.3531 24.978 12.4035 24.9807C12.4201 24.9811 12.4362 24.9827 12.4528 24.9839C12.4863 24.9859 12.5197 24.9882 12.5528 24.9914C12.5722 24.9929 12.5916 24.9957 12.6105 24.9977C12.6408 25.0012 12.6707 25.0048 12.7001 25.0091C12.7207 25.0118 12.7405 25.015 12.7607 25.0185C12.7893 25.0229 12.8176 25.028 12.8458 25.0331C12.8664 25.037 12.8866 25.0414 12.9067 25.0457C12.9346 25.0516 12.962 25.0575 12.9895 25.0642C13.0096 25.0689 13.0294 25.074 13.0492 25.0792C13.0766 25.0862 13.1041 25.0941 13.1315 25.102C13.1505 25.1075 13.1698 25.113 13.1888 25.1189C13.2171 25.1276 13.2449 25.137 13.2723 25.1465C13.2901 25.1528 13.3078 25.1583 13.3252 25.1646C13.3559 25.176 13.3857 25.1878 13.416 25.1996C13.4301 25.2055 13.4446 25.2107 13.4588 25.2166C13.5023 25.2347 13.5459 25.254 13.5887 25.274C13.5923 25.2756 13.5956 25.2772 13.5988 25.2791C13.6383 25.2977 13.6771 25.3169 13.7154 25.3374C13.7299 25.3449 13.7437 25.3528 13.7578 25.3606C13.7848 25.3756 13.8123 25.3906 13.8389 25.4063C13.855 25.4158 13.8708 25.4256 13.8869 25.4354C13.9111 25.45 13.9353 25.465 13.9591 25.4807C13.9753 25.4913 13.9914 25.5024 14.008 25.5134C14.0306 25.5287 14.0532 25.5441 14.0754 25.5602C14.0915 25.5716 14.1076 25.5835 14.1234 25.5953C14.1452 25.6118 14.167 25.6283 14.1879 25.6449C14.2037 25.6571 14.219 25.6697 14.2344 25.6823C14.2557 25.6996 14.2767 25.7173 14.2973 25.7354C14.3118 25.748 14.3268 25.7606 14.3409 25.7732C14.3623 25.7925 14.3829 25.8122 14.4038 25.8319C14.4167 25.8441 14.4301 25.8563 14.443 25.8689C14.4656 25.8913 14.4882 25.9145 14.5104 25.9378C14.5201 25.948 14.5305 25.9582 14.5402 25.9689C14.5717 26.0027 14.6024 26.0374 14.6326 26.0728C14.6367 26.0779 14.6407 26.083 14.6447 26.0878C14.6702 26.1185 14.6956 26.1496 14.7198 26.1814C14.7299 26.194 14.7392 26.207 14.7489 26.22C14.767 26.2444 14.7852 26.2688 14.8025 26.2936C14.813 26.3086 14.8231 26.3244 14.8336 26.3397C14.8493 26.3629 14.8647 26.3862 14.8796 26.4098C14.8901 26.4263 14.9002 26.4428 14.9103 26.4594C14.9244 26.4826 14.9385 26.5062 14.9518 26.5298C14.9615 26.5472 14.9712 26.5645 14.9805 26.5818C14.9938 26.6054 15.0063 26.6298 15.0188 26.6539C15.0277 26.6716 15.0362 26.6889 15.045 26.7066C15.0572 26.7318 15.0684 26.757 15.0797 26.7822C15.0878 26.7995 15.0959 26.8168 15.1032 26.8346C15.1149 26.8613 15.1253 26.8885 15.1362 26.9156C15.1427 26.9322 15.1492 26.9487 15.1556 26.9653C15.1673 26.9967 15.1778 27.0282 15.1883 27.0601C15.1927 27.0731 15.1976 27.0857 15.2016 27.0987C15.2157 27.1436 15.2291 27.1892 15.2416 27.2349C15.2432 27.242 15.2448 27.2495 15.2464 27.2566C15.2565 27.2955 15.2658 27.3345 15.2743 27.3739C15.2779 27.3896 15.2807 27.4058 15.2835 27.4219C15.2884 27.4467 15.2936 27.4711 15.2981 27.4963H24.0151V12.8714C24.0151 12.5997 24.2411 12.3793 24.5195 12.3793H31.8126C31.8251 12.3793 31.8634 12.3793 31.8872 12.3356C31.911 12.2923 31.89 12.2612 31.8828 12.2513L30.3046 9.94125C30.1516 9.71764 29.8962 9.58419 29.6206 9.58419H16.4489C16.3755 9.58419 16.3065 9.61214 16.2544 9.66292L15.4199 10.477C15.1774 10.7136 14.855 10.8439 14.512 10.8439H5.82557C5.37523 10.8439 5.00883 11.2014 5.00883 11.6407V24.2682Z" />
    </mask>
    <path
        d="M5.82557 9.85976H14.512C14.5854 9.85976 14.6544 9.83181 14.7065 9.78103L15.541 8.96691C15.7835 8.73031 16.1059 8.60001 16.4489 8.60001H29.6206C30.2339 8.60001 30.8033 8.89723 31.1439 9.39523L32.7225 11.7053C32.9465 12.0332 32.9671 12.4525 32.7766 12.8001C32.5861 13.1477 32.2165 13.3635 31.8126 13.3635H25.024V14.0327H28.5008C29.4224 14.0327 30.2517 14.5669 30.6133 15.394L32.6491 20.0488L34.4323 20.7448C35.3846 21.1164 36 22.003 36 23.0037V27.3144C36 27.9573 35.4637 28.4805 34.8047 28.4805H32.7298C32.4885 29.9076 31.2149 31 29.6847 31C28.1546 31 26.881 29.9076 26.6397 28.4805H15.2973C15.0559 29.9076 13.7824 31 12.2522 31C10.722 31 9.44847 29.9076 9.20716 28.4805H5.0625C4.47657 28.4805 4 28.0156 4 27.444V11.6407C4 10.6585 4.81876 9.85976 5.82557 9.85976ZM29.6847 30.0158C30.8308 30.0158 31.7629 29.1064 31.7629 27.9884C31.7629 26.8704 30.8308 25.961 29.6847 25.961C28.5387 25.961 27.6066 26.8704 27.6066 27.9884C27.6066 29.1064 28.5387 30.0158 29.6847 30.0158ZM25.024 27.4963H26.6389C26.6429 27.4715 26.6482 27.4475 26.653 27.4231C26.6562 27.4066 26.6591 27.39 26.6627 27.3735C26.6708 27.3349 26.6801 27.2967 26.6897 27.2585C26.6918 27.2507 26.6934 27.2428 26.6958 27.2349C26.7079 27.1889 26.7212 27.1436 26.7353 27.0987C26.7394 27.0857 26.7442 27.0727 26.7487 27.0593C26.7591 27.0278 26.77 26.9964 26.7813 26.9653C26.7878 26.9487 26.7943 26.9322 26.8011 26.9156C26.8116 26.8885 26.8221 26.8613 26.8338 26.8346C26.8411 26.8168 26.8491 26.7995 26.8572 26.7822C26.8685 26.7566 26.8798 26.7318 26.8919 26.7066C26.9008 26.6889 26.9093 26.6716 26.9185 26.6539C26.9306 26.6298 26.9436 26.6054 26.9565 26.5818C26.9658 26.5645 26.9754 26.5472 26.9851 26.5298C26.9984 26.5062 27.0126 26.4826 27.0267 26.4594C27.0368 26.4428 27.0469 26.4263 27.0569 26.4098C27.0723 26.3862 27.0876 26.3629 27.1034 26.3393C27.1138 26.324 27.1239 26.3086 27.1344 26.2936C27.1518 26.2688 27.1699 26.2444 27.1885 26.22C27.1978 26.207 27.2071 26.194 27.2167 26.1814C27.2418 26.1492 27.2672 26.1181 27.293 26.087C27.2966 26.0822 27.3003 26.0775 27.3043 26.0728C27.3342 26.0374 27.3652 26.0027 27.3967 25.9689C27.4064 25.9582 27.4165 25.9484 27.4266 25.9382C27.4488 25.9149 27.471 25.8917 27.494 25.8689C27.5069 25.8563 27.5202 25.8441 27.5331 25.8319C27.5537 25.8122 27.5747 25.7925 27.5961 25.7732C27.6102 25.7606 27.6247 25.748 27.6392 25.7354C27.6602 25.7173 27.6812 25.6996 27.7026 25.6819L27.7486 25.6453C27.77 25.6283 27.7918 25.6118 27.8136 25.5953C27.8293 25.5835 27.8454 25.5716 27.8616 25.5602C27.8838 25.5441 27.9064 25.5287 27.9294 25.513C27.9455 25.5024 27.9617 25.4913 27.9778 25.4807C28.0016 25.465 28.0262 25.45 28.0504 25.435C28.0662 25.4256 28.0819 25.4158 28.0981 25.4063C28.1247 25.3906 28.1521 25.3756 28.1796 25.3606C28.1937 25.3528 28.2074 25.3449 28.2211 25.3374C28.2603 25.3169 28.2994 25.2973 28.339 25.2784C28.3422 25.2772 28.345 25.2756 28.3482 25.274C28.391 25.254 28.4346 25.2347 28.4782 25.2166C28.4923 25.2107 28.5068 25.2055 28.521 25.1996C28.5508 25.1878 28.5811 25.176 28.6118 25.1646C28.6291 25.1583 28.6469 25.1528 28.6642 25.1465C28.6921 25.137 28.7199 25.1276 28.7481 25.1189C28.7671 25.113 28.7861 25.1075 28.8054 25.102C28.8329 25.0941 28.8603 25.0862 28.8878 25.0792C28.9075 25.074 28.9273 25.0689 28.9475 25.0642C28.9749 25.0575 29.0024 25.0516 29.0302 25.0457C29.0504 25.0414 29.0706 25.037 29.0911 25.0331C29.1194 25.028 29.1476 25.0229 29.1763 25.0185C29.1965 25.015 29.2162 25.0118 29.2368 25.0091C29.2663 25.0048 29.2961 25.0012 29.3264 24.9977C29.3454 24.9957 29.3647 24.9929 29.3841 24.9914C29.4172 24.9882 29.4507 24.9859 29.4842 24.9839C29.5007 24.9827 29.5169 24.9811 29.5334 24.9807C29.5839 24.978 29.6339 24.9768 29.6847 24.9768C29.7356 24.9768 29.7856 24.978 29.8361 24.9807C29.8526 24.9811 29.8688 24.9827 29.8853 24.9839C29.9188 24.9859 29.9523 24.9882 29.9854 24.9914C30.0047 24.9929 30.0241 24.9957 30.0431 24.9977C30.0733 25.0012 30.1032 25.0048 30.1327 25.0091C30.1532 25.0118 30.173 25.015 30.1932 25.0185C30.2218 25.0229 30.2501 25.028 30.2783 25.0331C30.2989 25.037 30.3191 25.0414 30.3393 25.0457C30.3671 25.0516 30.3946 25.0575 30.422 25.0642C30.4422 25.0689 30.4619 25.074 30.4817 25.0792C30.5092 25.0862 30.5366 25.0941 30.564 25.102C30.5834 25.1075 30.6024 25.113 30.6213 25.1189C30.6496 25.1276 30.6774 25.137 30.7053 25.1465C30.7226 25.1528 30.7404 25.1583 30.7577 25.1646C30.7884 25.176 30.8187 25.1878 30.8485 25.1996C30.8626 25.2055 30.8772 25.2107 30.8913 25.2166C30.9349 25.2347 30.9785 25.254 31.0212 25.274C31.0245 25.2756 31.0273 25.2772 31.0305 25.2784C31.0701 25.2973 31.1092 25.3169 31.1483 25.3374C31.1621 25.3449 31.1758 25.3528 31.1899 25.3606C31.2174 25.3756 31.2448 25.3906 31.2714 25.4063C31.2876 25.4158 31.3033 25.4256 31.319 25.435C31.3433 25.45 31.3679 25.465 31.3917 25.4807C31.4078 25.4913 31.424 25.5024 31.4401 25.513C31.4631 25.5287 31.4857 25.5441 31.5079 25.5602C31.524 25.5716 31.5402 25.5835 31.5559 25.5953C31.5777 25.6118 31.5995 25.6283 31.6209 25.6453L31.6669 25.6819C31.6883 25.6996 31.7093 25.7173 31.7302 25.7354C31.7448 25.748 31.7593 25.7606 31.7734 25.7732C31.7948 25.7925 31.8158 25.8122 31.8364 25.8319C31.8493 25.8441 31.8626 25.8563 31.8755 25.8689C31.8985 25.8917 31.9207 25.9149 31.9429 25.9382C31.953 25.9484 31.9631 25.9582 31.9728 25.9689C32.0042 26.0027 32.0353 26.0374 32.0652 26.0728C32.0692 26.0775 32.0728 26.0822 32.0765 26.087C32.1023 26.1181 32.1277 26.1492 32.1527 26.1814C32.1624 26.194 32.1717 26.207 32.181 26.22C32.1995 26.2444 32.2177 26.2688 32.2351 26.2936C32.2455 26.3086 32.2556 26.324 32.2661 26.3393C32.2819 26.3629 32.2972 26.3862 32.3125 26.4098C32.3226 26.4263 32.3327 26.4428 32.3428 26.4594C32.3569 26.4826 32.371 26.5062 32.3844 26.5298C32.394 26.5472 32.4037 26.5645 32.413 26.5818C32.4259 26.6054 32.4388 26.6298 32.4509 26.6539C32.4602 26.6716 32.4687 26.6889 32.4776 26.7066C32.4897 26.7318 32.501 26.7566 32.5123 26.7822C32.5204 26.7995 32.5284 26.8168 32.5357 26.8346C32.5474 26.8613 32.5579 26.8885 32.5684 26.9156C32.5752 26.9322 32.5817 26.9487 32.5881 26.9653C32.5994 26.9964 32.6103 27.0278 32.6208 27.0593C32.6253 27.0727 32.6301 27.0857 32.6341 27.0987C32.6483 27.1436 32.6616 27.1889 32.6737 27.2349C32.6761 27.2428 32.6777 27.2507 32.6797 27.2585C32.6894 27.2967 32.6987 27.3349 32.7068 27.3735C32.7104 27.39 32.7132 27.4066 32.7165 27.4231C32.7213 27.4475 32.7266 27.4715 32.7306 27.4963H34.8047C34.9076 27.4963 34.9912 27.4148 34.9912 27.3144V25.2524H34.2043V24.2682H34.9912V23.0037C34.9912 22.4077 34.6248 21.8798 34.0578 21.6585L32.1701 20.922H25.024V27.4963ZM25.024 19.9378H31.5039L29.6855 15.7802C29.4826 15.3165 29.0177 15.0169 28.5008 15.0169H25.024V19.9378ZM12.2522 30.0158C13.3982 30.0158 14.3304 29.1064 14.3304 27.9884C14.3304 26.8704 13.3982 25.961 12.2522 25.961C12.2163 25.961 12.1808 25.9618 12.1453 25.9637C11.1905 26.011 10.4036 26.6905 10.2164 27.5802C10.2095 27.6132 10.2031 27.6467 10.1978 27.6802C10.1873 27.7471 10.1805 27.8152 10.1768 27.8841C10.1748 27.9187 10.174 27.9534 10.174 27.9884C10.174 29.1064 11.1062 30.0158 12.2522 30.0158ZM5.00883 24.2682H5.79571V25.2524H5.00883V27.444C5.00883 27.4727 5.03304 27.4963 5.0625 27.4963H9.20636C9.21039 27.4719 9.21564 27.4479 9.22048 27.4239C9.22371 27.407 9.22653 27.39 9.23016 27.3731C9.23823 27.3353 9.24711 27.2979 9.2568 27.2609C9.25922 27.2522 9.26083 27.2432 9.26325 27.2345C9.27536 27.1889 9.28867 27.144 9.3028 27.0991C9.30724 27.0853 9.31208 27.0715 9.31652 27.0582C9.32701 27.0271 9.3375 26.996 9.3488 26.9656C9.35526 26.9483 9.36212 26.9318 9.36857 26.9149C9.37907 26.8881 9.38996 26.8613 9.40086 26.8349C9.40853 26.8168 9.41659 26.7991 9.42467 26.7814C9.43596 26.7566 9.44726 26.7318 9.45937 26.707C9.46784 26.6889 9.47713 26.6712 9.486 26.6535C9.49811 26.6294 9.51062 26.6058 9.52353 26.5818C9.53322 26.5645 9.5429 26.5472 9.55258 26.5298C9.5663 26.5062 9.58003 26.483 9.59415 26.4598C9.60424 26.4428 9.61433 26.4263 9.62482 26.4098C9.63975 26.3862 9.65508 26.3629 9.67082 26.3401C9.68091 26.3244 9.6914 26.3086 9.70189 26.2936C9.71924 26.2688 9.7374 26.2448 9.75516 26.2208C9.76484 26.2074 9.77453 26.194 9.78461 26.1811C9.80883 26.15 9.83344 26.1192 9.85887 26.0889C9.8633 26.0834 9.86734 26.0779 9.87178 26.0728C9.90204 26.0374 9.93271 26.0027 9.96419 25.9689C9.97427 25.9582 9.98436 25.948 9.99445 25.9374C10.0166 25.9141 10.0388 25.8913 10.0614 25.8689C10.0744 25.8563 10.0877 25.8441 10.101 25.8315C10.1216 25.8118 10.1421 25.7925 10.1635 25.7732C10.1777 25.7606 10.1926 25.748 10.2071 25.735C10.2277 25.7173 10.2487 25.6996 10.2701 25.6823C10.2854 25.6697 10.3007 25.6571 10.3165 25.6449C10.3375 25.6283 10.3592 25.6118 10.381 25.5953C10.3968 25.5835 10.4129 25.5716 10.4291 25.5602C10.4512 25.5441 10.4738 25.5287 10.4964 25.5134C10.513 25.5024 10.5291 25.4913 10.5453 25.4807C10.5691 25.465 10.5933 25.45 10.6175 25.4354C10.6336 25.4256 10.6494 25.4158 10.6655 25.4063C10.6922 25.3906 10.7192 25.3756 10.7466 25.3606C10.7608 25.3528 10.7745 25.3449 10.789 25.3374C10.8273 25.3169 10.8661 25.2977 10.9056 25.2791C10.9089 25.2776 10.9121 25.2756 10.9157 25.274C10.9585 25.254 11.0021 25.2347 11.0456 25.2166C11.0598 25.2107 11.0743 25.2055 11.0884 25.1996C11.1187 25.1878 11.1485 25.176 11.1792 25.1646C11.1966 25.1583 11.2143 25.1528 11.2321 25.1465C11.2595 25.137 11.2874 25.1276 11.3156 25.1189C11.3346 25.113 11.3539 25.1075 11.3729 25.102C11.4004 25.0941 11.4278 25.0862 11.4552 25.0792C11.475 25.074 11.4948 25.0689 11.515 25.0642C11.5424 25.0575 11.5698 25.0516 11.5977 25.0457C11.6179 25.0414 11.638 25.037 11.6586 25.0331C11.6869 25.028 11.7151 25.0229 11.7438 25.0185C11.7639 25.015 11.7837 25.0118 11.8043 25.0091C11.8337 25.0048 11.8636 25.0012 11.8939 24.9977C11.9128 24.9957 11.9322 24.9929 11.9516 24.9914C11.9847 24.9882 12.0182 24.9859 12.0517 24.9839C12.0682 24.9827 12.0843 24.9811 12.1009 24.9807C12.1513 24.978 12.2014 24.9768 12.2522 24.9768C12.3031 24.9768 12.3531 24.978 12.4035 24.9807C12.4201 24.9811 12.4362 24.9827 12.4528 24.9839C12.4863 24.9859 12.5197 24.9882 12.5528 24.9914C12.5722 24.9929 12.5916 24.9957 12.6105 24.9977C12.6408 25.0012 12.6707 25.0048 12.7001 25.0091C12.7207 25.0118 12.7405 25.015 12.7607 25.0185C12.7893 25.0229 12.8176 25.028 12.8458 25.0331C12.8664 25.037 12.8866 25.0414 12.9067 25.0457C12.9346 25.0516 12.962 25.0575 12.9895 25.0642C13.0096 25.0689 13.0294 25.074 13.0492 25.0792C13.0766 25.0862 13.1041 25.0941 13.1315 25.102C13.1505 25.1075 13.1698 25.113 13.1888 25.1189C13.2171 25.1276 13.2449 25.137 13.2723 25.1465C13.2901 25.1528 13.3078 25.1583 13.3252 25.1646C13.3559 25.176 13.3857 25.1878 13.416 25.1996C13.4301 25.2055 13.4446 25.2107 13.4588 25.2166C13.5023 25.2347 13.5459 25.254 13.5887 25.274C13.5923 25.2756 13.5956 25.2772 13.5988 25.2791C13.6383 25.2977 13.6771 25.3169 13.7154 25.3374C13.7299 25.3449 13.7437 25.3528 13.7578 25.3606C13.7848 25.3756 13.8123 25.3906 13.8389 25.4063C13.855 25.4158 13.8708 25.4256 13.8869 25.4354C13.9111 25.45 13.9353 25.465 13.9591 25.4807C13.9753 25.4913 13.9914 25.5024 14.008 25.5134C14.0306 25.5287 14.0532 25.5441 14.0754 25.5602C14.0915 25.5716 14.1076 25.5835 14.1234 25.5953C14.1452 25.6118 14.167 25.6283 14.1879 25.6449C14.2037 25.6571 14.219 25.6697 14.2344 25.6823C14.2557 25.6996 14.2767 25.7173 14.2973 25.7354C14.3118 25.748 14.3268 25.7606 14.3409 25.7732C14.3623 25.7925 14.3829 25.8122 14.4038 25.8319C14.4167 25.8441 14.4301 25.8563 14.443 25.8689C14.4656 25.8913 14.4882 25.9145 14.5104 25.9378C14.5201 25.948 14.5305 25.9582 14.5402 25.9689C14.5717 26.0027 14.6024 26.0374 14.6326 26.0728C14.6367 26.0779 14.6407 26.083 14.6447 26.0878C14.6702 26.1185 14.6956 26.1496 14.7198 26.1814C14.7299 26.194 14.7392 26.207 14.7489 26.22C14.767 26.2444 14.7852 26.2688 14.8025 26.2936C14.813 26.3086 14.8231 26.3244 14.8336 26.3397C14.8493 26.3629 14.8647 26.3862 14.8796 26.4098C14.8901 26.4263 14.9002 26.4428 14.9103 26.4594C14.9244 26.4826 14.9385 26.5062 14.9518 26.5298C14.9615 26.5472 14.9712 26.5645 14.9805 26.5818C14.9938 26.6054 15.0063 26.6298 15.0188 26.6539C15.0277 26.6716 15.0362 26.6889 15.045 26.7066C15.0572 26.7318 15.0684 26.757 15.0797 26.7822C15.0878 26.7995 15.0959 26.8168 15.1032 26.8346C15.1149 26.8613 15.1253 26.8885 15.1362 26.9156C15.1427 26.9322 15.1492 26.9487 15.1556 26.9653C15.1673 26.9967 15.1778 27.0282 15.1883 27.0601C15.1927 27.0731 15.1976 27.0857 15.2016 27.0987C15.2157 27.1436 15.2291 27.1892 15.2416 27.2349C15.2432 27.242 15.2448 27.2495 15.2464 27.2566C15.2565 27.2955 15.2658 27.3345 15.2743 27.3739C15.2779 27.3896 15.2807 27.4058 15.2835 27.4219C15.2884 27.4467 15.2936 27.4711 15.2981 27.4963H24.0151V12.8714C24.0151 12.5997 24.2411 12.3793 24.5195 12.3793H31.8126C31.8251 12.3793 31.8634 12.3793 31.8872 12.3356C31.911 12.2923 31.89 12.2612 31.8828 12.2513L30.3046 9.94125C30.1516 9.71764 29.8962 9.58419 29.6206 9.58419H16.4489C16.3755 9.58419 16.3065 9.61214 16.2544 9.66292L15.4199 10.477C15.1774 10.7136 14.855 10.8439 14.512 10.8439H5.82557C5.37523 10.8439 5.00883 11.2014 5.00883 11.6407V24.2682Z"
        fill="white" stroke="white" stroke-width="6" mask="url(#path-2-inside-1_15086_197)" />
    <mask id="path-3-inside-2_15086_197" fill="white">
        <path
            d="M18.0812 13.6385H21.2719C21.9163 13.6385 22.4409 14.1499 22.4409 14.779V25.3109C22.4409 25.5825 22.2149 25.803 21.9365 25.803H17.417C17.1385 25.803 16.9125 25.5825 16.9125 25.3109V14.779C16.9121 14.1499 17.4363 13.6385 18.0812 13.6385ZM17.921 24.8188H21.4317V19.0318H17.921V24.8188ZM17.921 18.0476H21.4317V14.779C21.4317 14.6927 21.3599 14.6227 21.2715 14.6227H18.0808C17.9924 14.6227 17.9206 14.6927 17.9206 14.779V18.0476H17.921ZM7.87506 13.6385H14.0451C14.7581 13.6385 15.3384 14.2046 15.3384 14.9002V17.7705C15.3384 18.4661 14.7581 19.0322 14.0451 19.0322H7.87466C7.16162 19.0322 6.58134 18.4661 6.58134 17.7705V14.9002C6.58175 14.2046 7.16202 13.6385 7.87506 13.6385ZM7.59057 17.7701C7.59057 17.9228 7.71809 18.0476 7.87506 18.0476H14.0451C14.202 18.0476 14.3295 17.9232 14.3295 17.7701V14.8998C14.3295 14.7471 14.202 14.6223 14.0451 14.6223H7.87466C7.71769 14.6223 7.59017 14.7467 7.59017 14.8998V17.7701H7.59057Z" />
    </mask>
    <path
        d="M18.0812 13.6385H21.2719C21.9163 13.6385 22.4409 14.1499 22.4409 14.779V25.3109C22.4409 25.5825 22.2149 25.803 21.9365 25.803H17.417C17.1385 25.803 16.9125 25.5825 16.9125 25.3109V14.779C16.9121 14.1499 17.4363 13.6385 18.0812 13.6385ZM17.921 24.8188H21.4317V19.0318H17.921V24.8188ZM17.921 18.0476H21.4317V14.779C21.4317 14.6927 21.3599 14.6227 21.2715 14.6227H18.0808C17.9924 14.6227 17.9206 14.6927 17.9206 14.779V18.0476H17.921ZM7.87506 13.6385H14.0451C14.7581 13.6385 15.3384 14.2046 15.3384 14.9002V17.7705C15.3384 18.4661 14.7581 19.0322 14.0451 19.0322H7.87466C7.16162 19.0322 6.58134 18.4661 6.58134 17.7705V14.9002C6.58175 14.2046 7.16202 13.6385 7.87506 13.6385ZM7.59057 17.7701C7.59057 17.9228 7.71809 18.0476 7.87506 18.0476H14.0451C14.202 18.0476 14.3295 17.9232 14.3295 17.7701V14.8998C14.3295 14.7471 14.202 14.6223 14.0451 14.6223H7.87466C7.71769 14.6223 7.59017 14.7467 7.59017 14.8998V17.7701H7.59057Z"
        fill="white" />
    <path
        d="M16.9125 14.779L19.9125 14.777V14.779H16.9125ZM17.921 24.8188V27.8188H14.921V24.8188H17.921ZM21.4317 24.8188H24.4317V27.8188H21.4317V24.8188ZM21.4317 19.0318V16.0318H24.4317V19.0318H21.4317ZM17.921 19.0318H14.921V16.0318H17.921V19.0318ZM21.4317 18.0476H24.4317V21.0476H21.4317V18.0476ZM17.9206 18.0476V21.0476H14.9206V18.0476H17.9206ZM6.58134 14.9002L3.58134 14.9002L3.58134 14.8985L6.58134 14.9002ZM7.59057 17.7701V14.7701H10.5906V17.7701H7.59057ZM7.59017 17.7701V20.7701H4.59017V17.7701H7.59017ZM18.0812 10.6385H21.2719V16.6385H18.0812V10.6385ZM21.2719 10.6385C23.5021 10.6385 25.4409 12.4228 25.4409 14.779H19.4409C19.4409 15.8769 20.3305 16.6385 21.2719 16.6385V10.6385ZM25.4409 14.779V25.3109H19.4409V14.779H25.4409ZM25.4409 25.3109C25.4409 27.3089 23.8014 28.803 21.9365 28.803V22.803C20.6285 22.803 19.4409 23.8562 19.4409 25.3109H25.4409ZM21.9365 28.803H17.417V22.803H21.9365V28.803ZM17.417 28.803C15.552 28.803 13.9125 27.3089 13.9125 25.3109H19.9125C19.9125 23.8562 18.725 22.803 17.417 22.803V28.803ZM13.9125 25.3109V14.779H19.9125V25.3109H13.9125ZM13.9125 14.7809C13.911 12.4235 15.8503 10.6385 18.0812 10.6385V16.6385C19.0224 16.6385 19.9132 15.8762 19.9125 14.777L13.9125 14.7809ZM17.921 21.8188H21.4317V27.8188H17.921V21.8188ZM18.4317 24.8188V19.0318H24.4317V24.8188H18.4317ZM21.4317 22.0318H17.921V16.0318H21.4317V22.0318ZM20.921 19.0318V24.8188H14.921V19.0318H20.921ZM17.921 15.0476H21.4317V21.0476H17.921V15.0476ZM18.4317 18.0476V14.779H24.4317V18.0476H18.4317ZM18.4317 14.779C18.4317 16.4191 19.7734 17.6227 21.2715 17.6227V11.6227C22.9463 11.6227 24.4317 12.9664 24.4317 14.779H18.4317ZM21.2715 17.6227H18.0808V11.6227H21.2715V17.6227ZM18.0808 17.6227C19.5788 17.6227 20.9206 16.4191 20.9206 14.779H14.9206C14.9206 12.9664 16.4059 11.6227 18.0808 11.6227V17.6227ZM20.9206 14.779V18.0476H14.9206V14.779H20.9206ZM17.9206 15.0476H17.921V21.0476H17.9206V15.0476ZM7.87506 10.6385H14.0451V16.6385H7.87506V10.6385ZM14.0451 10.6385C16.3446 10.6385 18.3384 12.4782 18.3384 14.9002H12.3384C12.3384 15.931 13.1716 16.6385 14.0451 16.6385V10.6385ZM18.3384 14.9002V17.7705H12.3384V14.9002H18.3384ZM18.3384 17.7705C18.3384 20.1925 16.3446 22.0322 14.0451 22.0322V16.0322C13.1716 16.0322 12.3384 16.7397 12.3384 17.7705H18.3384ZM14.0451 22.0322H7.87466V16.0322H14.0451V22.0322ZM7.87466 22.0322C5.57514 22.0322 3.58134 20.1925 3.58134 17.7705H9.58134C9.58134 16.7397 8.7481 16.0322 7.87466 16.0322V22.0322ZM3.58134 17.7705V14.9002H9.58134V17.7705H3.58134ZM3.58134 14.8985C3.58275 12.4782 5.57517 10.6385 7.87506 10.6385V16.6385C8.74888 16.6385 9.58075 15.931 9.58134 14.902L3.58134 14.8985ZM10.5906 17.7701C10.5906 16.1992 9.30737 15.0476 7.87506 15.0476V21.0476C6.12881 21.0476 4.59057 19.6465 4.59057 17.7701H10.5906ZM7.87506 15.0476H14.0451V21.0476H7.87506V15.0476ZM14.0451 15.0476C12.6156 15.0476 11.3295 16.1969 11.3295 17.7701H17.3295C17.3295 19.6496 15.7885 21.0476 14.0451 21.0476V15.0476ZM11.3295 17.7701V14.8998H17.3295V17.7701H11.3295ZM11.3295 14.8998C11.3295 16.4707 12.6127 17.6223 14.0451 17.6223V11.6223C15.7913 11.6223 17.3295 13.0235 17.3295 14.8998H11.3295ZM14.0451 17.6223H7.87466V11.6223H14.0451V17.6223ZM7.87466 17.6223C9.30418 17.6223 10.5902 16.473 10.5902 14.8998H4.59017C4.59017 13.0203 6.13119 11.6223 7.87466 11.6223V17.6223ZM10.5902 14.8998V17.7701H4.59017V14.8998H10.5902ZM7.59017 14.7701H7.59057V20.7701H7.59017V14.7701Z"
        fill="white" mask="url(#path-3-inside-2_15086_197)" />
</svg>