<svg xmlns="http://www.w3.org/2000/svg" width="20" height="20" viewBox="0 0 20 20" fill="none">
    <path
        d="M4.99996 16.6667L4.16663 17.5M15 16.6667L15.8333 17.5M2.49996 10V10.8333C2.49996 13.5833 2.49996 14.9583 3.35413 15.8125C4.20829 16.6667 5.58329 16.6667 8.33329 16.6667H11.6666C14.4166 16.6667 15.7916 16.6667 16.6458 15.8125C17.5 14.9583 17.5 13.5833 17.5 10.8333V10M1.66663 10H18.3333M3.33329 10V4.60251C3.333 4.09683 3.51497 3.60798 3.84584 3.22558C4.17672 2.84318 4.63433 2.59283 5.1348 2.52044C5.63527 2.44805 6.14507 2.55846 6.57074 2.83143C6.99641 3.1044 7.30945 3.52164 7.45246 4.00667L7.49996 4.16667M6.66663 5.00001L8.74996 3.33334"
        stroke="#101828" stroke-width="1.5" stroke-linecap="round" stroke-linejoin="round" />
</svg>